<?xml version="1.0" encoding="UTF-8"?>
<svg width="77px" height="77px" viewBox="0 0 77 77" version="1.1" xmlns="http://www.w3.org/2000/svg" xmlns:xlink="http://www.w3.org/1999/xlink">
    <!-- Generator: Sketch 51.2 (57519) - http://www.bohemiancoding.com/sketch -->
    <title>Collide &amp; Discover</title>
    <desc>Created with Sketch.</desc>
    <defs></defs>
    <g id="Page-1" stroke="none" stroke-width="1" fill="none" fill-rule="evenodd">
        <g id="Home-Copy" transform="translate(-1007.000000, -782.000000)" fill="#377415" fill-rule="nonzero">
            <g id="Collide-&amp;-Discover" transform="translate(1007.000000, 782.000000)">
                <circle id="Oval" cx="37.1665737" cy="37.1665737" r="2.16657366"></circle>
                <circle id="Oval" cx="40.1665737" cy="38.1665737" r="2.16657366"></circle>
                <circle id="Oval" cx="38.1665737" cy="40.1665737" r="2.16657366"></circle>
                <path d="M77,38.5 C77,32.7724833 73.227,27.9125 68.0372,26.2659833 C70.5448333,21.43295 69.7748333,15.32685 65.7246333,11.27665 C61.67315,7.22645 55.5683333,6.4603 50.7353,8.96536667 C49.0900667,3.77428333 44.2275167,0 38.5,0 C32.7724833,0 27.9112167,3.77428333 26.2659833,8.96536667 C21.4316667,6.45901667 15.3255667,7.22901667 11.27665,11.27665 C7.22645,15.32685 6.45645,21.4316667 8.96408333,26.2659833 C3.773,27.9112167 0,32.7724833 0,38.5 C0,44.2275167 3.773,49.0887833 8.96408333,50.7340167 C6.45773333,55.56705 7.22645,61.67315 11.27665,65.72335 C13.7778667,68.22585 17.0644833,69.4758167 20.3511,69.4758167 C22.3839,69.4758167 24.4167,68.9945667 26.2647,68.0359167 C27.9112167,73.2257167 32.7724833,77 38.5,77 C44.2275167,77 49.0887833,73.2257167 50.7340167,68.0359167 C52.5820167,68.9945667 54.6148167,69.4758167 56.6489,69.4758167 C59.9355167,69.4758167 63.2221333,68.2245667 65.72335,65.72335 C69.77355,61.67315 70.54355,55.56705 68.0359167,50.7340167 C73.227,49.0875 77,44.2275167 77,38.5 Z M2.56666667,38.5 C2.56666667,33.6567 5.94183333,29.5962333 10.46045,28.5220833 C10.7171167,28.83265 10.9866167,29.1355167 11.27665,29.42555 L20.3511,38.5 L11.27665,47.57445 C10.9866167,47.8644833 10.7171167,48.16735 10.46045,48.4779167 C5.94183333,47.4037667 2.56666667,43.3433 2.56666667,38.5 Z M23.98165,38.5 L25.6666667,36.8149833 L25.6666667,40.1863 L23.98165,38.5 Z M25.6666667,43.8155667 L25.6666667,48.7666667 L13.7149833,48.7666667 L22.1670167,40.3146333 L25.6666667,43.8155667 Z M22.1657333,36.6853667 L13.7149833,28.2333333 L25.6666667,28.2333333 L25.6666667,33.1844333 L22.1657333,36.6853667 Z M13.0912833,63.9087167 C9.66735,60.4847833 9.18225,55.2269667 11.6167333,51.2717333 C12.0184167,51.30895 12.4226667,51.3333333 12.8333333,51.3333333 L25.6666667,51.3333333 L25.6666667,64.1666667 C25.6666667,64.5773333 25.6897667,64.9815833 25.7282667,65.3832667 C21.77175,67.81775 16.5152167,67.33265 13.0912833,63.9087167 Z M25.6666667,12.8333333 L25.6666667,25.6666667 L12.8333333,25.6666667 C12.4226667,25.6666667 12.0184167,25.69105 11.6167333,25.7282667 C9.18225,21.7730333 9.66735,16.5165 13.0912833,13.0912833 C15.0932833,11.0892833 17.72155,10.0895667 20.3498167,10.0895667 C22.2196333,10.0895667 24.0843167,10.6054667 25.7282667,11.6167333 C25.6897667,12.0184167 25.6666667,12.4226667 25.6666667,12.8333333 Z M38.5,2.56666667 C43.3433,2.56666667 47.4037667,5.94183333 48.4792,10.46045 C48.1686333,10.7171167 47.8657667,10.9866167 47.5757333,11.27665 L38.5,20.3511 L29.42555,11.27665 C29.1355167,10.9866167 28.8313667,10.7171167 28.5220833,10.46045 C29.5962333,5.94183333 33.6567,2.56666667 38.5,2.56666667 Z M40.1863,25.6666667 L36.8149833,25.6666667 L38.5,23.98165 L40.1863,25.6666667 Z M28.2333333,13.7149833 L36.6853667,22.1670167 L33.1844333,25.6666667 L28.2333333,25.6666667 L28.2333333,13.7149833 Z M28.2333333,28.2333333 L30.6177667,28.2333333 L28.2333333,30.6177667 L28.2333333,28.2333333 Z M28.2333333,46.3822333 L30.6177667,48.7666667 L28.2333333,48.7666667 L28.2333333,46.3822333 Z M28.2333333,51.3333333 L33.1844333,51.3333333 L36.6853667,54.8342667 L28.2333333,63.2850167 L28.2333333,51.3333333 Z M38.5,74.4333333 C33.6567,74.4333333 29.5962333,71.0581667 28.5208,66.53955 C28.8313667,66.2828833 29.1342333,66.0133833 29.4242667,65.72335 L38.5,56.6489 L47.57445,65.72335 C47.8644833,66.0133833 48.1686333,66.2828833 48.4779167,66.53955 C47.4037667,71.0581667 43.3433,74.4333333 38.5,74.4333333 Z M36.8149833,51.3333333 L40.1863,51.3333333 L38.5,53.01835 L36.8149833,51.3333333 Z M48.7666667,63.2850167 L40.3146333,54.8329833 L43.8155667,51.3333333 L48.7666667,51.3333333 L48.7666667,63.2850167 Z M48.7666667,48.7666667 L46.3822333,48.7666667 L48.7666667,46.3822333 L48.7666667,48.7666667 Z M48.7666667,42.7529667 L42.7529667,48.7666667 L34.2483167,48.7666667 L28.2333333,42.7516833 L28.2333333,34.2470333 L34.2483167,28.2333333 L42.7529667,28.2333333 L48.7666667,34.2470333 L48.7666667,42.7529667 Z M48.7666667,30.6177667 L46.3822333,28.2333333 L48.7666667,28.2333333 L48.7666667,30.6177667 Z M48.7666667,25.6666667 L43.8155667,25.6666667 L40.3146333,22.1657333 L48.7666667,13.7149833 L48.7666667,25.6666667 Z M56.6501833,10.0895667 C59.2797333,10.0895667 61.9092833,11.0892833 63.91,13.0912833 C67.3339333,16.5152167 67.8190333,21.7730333 65.38455,25.7282667 C64.9828667,25.69105 64.5773333,25.6666667 64.1666667,25.6666667 L51.3333333,25.6666667 L51.3333333,12.8333333 C51.3333333,12.4226667 51.3102333,12.0184167 51.2717333,11.6167333 C52.9156833,10.6054667 54.7803667,10.0895667 56.6501833,10.0895667 Z M54.8342667,40.3146333 L63.2863,48.7666667 L51.3333333,48.7666667 L51.3333333,43.8155667 L54.8342667,40.3146333 Z M51.3333333,40.1863 L51.3333333,36.8137 L53.0196333,38.5 L51.3333333,40.1863 Z M51.3333333,33.1844333 L51.3333333,28.2333333 L63.2863,28.2333333 L54.8342667,36.6853667 L51.3333333,33.1844333 Z M63.91,63.9087167 C60.4835,67.33265 55.2269667,67.81775 51.2717333,65.3832667 C51.3102333,64.9815833 51.3333333,64.5773333 51.3333333,64.1666667 L51.3333333,51.3333333 L64.1666667,51.3333333 C64.5773333,51.3333333 64.9828667,51.30895 65.38455,51.2717333 C67.8190333,55.2269667 67.3339333,60.4835 63.91,63.9087167 Z M66.5408333,48.4779167 C66.2841667,48.16735 66.0146667,47.8644833 65.7246333,47.57445 L56.6489,38.5 L65.7246333,29.42555 C66.0146667,29.1355167 66.2841667,28.83265 66.5408333,28.5220833 C71.05945,29.5975167 74.4333333,33.6579833 74.4333333,38.5 C74.4333333,43.3420167 71.05945,47.4024833 66.5408333,48.4779167 Z" id="Shape"></path>
            </g>
        </g>
    </g>
</svg>